# xmcd
#
# Track frame offsets:
#	150
#	37897
#	56203
#	76612
#	97761
#	116774
#	135613
#	155486
#	174227
#	189050
#	207079
#	229814
#	254779
#
# Disc length: 3654 seconds
#
# Revision: 1
# Processed by: cddbd v1.5.2PL0 Copyright (c) Steve Scherf et al.
# Submitted via: audiograbber 1.83.01
#
DISCID=9f0e440d
DTITLE=Ana Torroja - Pasajes de un sueño
DYEAR=1999
DGENRE=Pop
TTITLE0=Bonus track clip - Ya no te quiero
TTITLE1=Al sur
TTITLE2=Jugando al escondite
TTITLE3=Ya no te quiero
TTITLE4=Bésame
TTITLE5=Diosa del cobre
TTITLE6=Cuando no estás
TTITLE7=Dulce pesadilla
TTITLE8=Nana
TTITLE9=Pequeña rosa
TTITLE10=Cachitos de un sueño
TTITLE11=Dentro de mí
TTITLE12=Una canción de amor
EXTD=
EXTT0=
EXTT1=
EXTT2=
EXTT3=
EXTT4=
EXTT5=
EXTT6=
EXTT7=
EXTT8=
EXTT9=
EXTT10=
EXTT11=
EXTT12=
PLAYORDER=
